<svg t="1766477087016" class="icon" viewBox="0 0 1024 1024" version="1.1" xmlns="http://www.w3.org/2000/svg" p-id="6739" width="200" height="200"><path d="M686 727.5c0-17.8 14.4-32.2 32.3-32.2h165c49 0.1 68.3-65.9 27.5-94.1l-144.2-99.5c-2.5-1.7-1.3-5.8 1.7-5.8H786c49 0 68.2-65.9 27.4-94L671 303.6c-2.5-1.7-1.3-5.8 1.7-5.8H691c49 0 68.2-66 27.3-94.1l-122.3-84c-17.7-12.2-41.2-12.2-58.9 0l-122.3 84c-40.9 28.1-21.7 94.1 27.3 94.1h18.5c3 0 4.2 4.1 1.7 5.8L320 401.8c-40.8 28.1-21.6 94 27.4 94h17.7c3 0 4.2 4.1 1.7 5.8l-144.2 99.5c-40.8 28.2-21.6 94.1 27.5 94.1h164.7c17.8 0 32.2 14.4 32.2 32.3v142.7c0 23.5 19.4 42.8 43.2 42.8h152.6c23.8 0 43.2-19.3 43.2-42.8V727.5z" fill="#8CC63F" p-id="6740"></path><path d="M553.6 932.6H401c-34.8 0-63.2-28.2-63.2-62.8V727c0-6.8-5.5-12.3-12.2-12.3H160.9h-0.1c-30.8 0-56.7-19.4-66.1-49.5-4.5-14.2-4.6-29.2-0.4-43.2 4.6-15.4 14.2-28.4 27.8-37.8l108.2-74.6c-17.9-7.9-31.8-23.4-38.2-43.7-4.4-14.3-4.6-29.2-0.4-43.2 4.6-15.4 14.2-28.4 27.7-37.8l106.1-73.3c-18.2-7.8-32.4-23.4-38.8-44.1-4.4-14.3-4.5-29.2-0.3-43.2 4.7-15.4 14.3-28.4 27.8-37.7l122.3-84c24.4-16.8 57.2-16.8 81.6 0l122.3 84c13.6 9.3 23.2 22.4 27.8 37.7 4.2 14 4.1 28.9-0.3 43.2-6.4 20.6-20.6 36.2-38.8 44.1l106.1 73.3c13.5 9.3 23.1 22.4 27.7 37.8 4.2 14 4.1 28.9-0.4 43.2-6.3 20.4-20.3 35.8-38.2 43.7l108.2 74.6c13.5 9.3 23.1 22.4 27.8 37.8 4.2 14 4.1 28.9-0.4 43.2-9.4 30.1-35.4 49.5-66.2 49.5H629.1c-6.8 0-12.3 5.5-12.3 12.2v142.8c0 34.7-28.3 62.9-63.2 62.9zM160.9 674.8h164.7c28.8 0 52.2 23.4 52.2 52.3v142.7c0 12.6 10.4 22.8 23.2 22.8h152.6c12.8 0 23.2-10.2 23.2-22.8V727c0-28.8 23.4-52.2 52.3-52.2h165c19.8 0 26.4-16.4 28-21.4 3.5-11.1 2.2-26.4-11.9-36.2L666 517.7c-8.4-5.8-12-16.3-9-26s11.9-16.3 22-16.3h17.7c19.8 0 26.4-16.4 28-21.4 3.5-11.1 2.1-26.4-11.9-36.1l-142.4-98.3c-8.4-5.8-12-16.3-9-26s11.9-16.3 22-16.3h18.5c19.8 0 26.4-16.4 28-21.5 3.5-11.1 2.1-26.5-12-36.1l-122.3-84c-10.8-7.5-25.4-7.5-36.3 0l-122.3 84c-14.1 9.7-15.4 25-12 36.1 1.6 5 8.2 21.5 28 21.5h18.5c10.1 0 19 6.5 22 16.2 3 9.8-0.5 20.2-9 26l-142.4 98.3c-14.1 9.7-15.4 25-11.9 36.1 1.6 5 8.2 21.4 28 21.4H276c10.1 0 19 6.5 22 16.3s-0.6 20.2-9 26l-144.2 99.5c-14.1 9.7-15.4 25-11.9 36.2 1.6 5.1 8.2 21.5 28 21.5z" fill="#009245" p-id="6741"></path></svg>
